<svg width="112" height="25" viewBox="0 0 112 25" fill="none" xmlns="http://www.w3.org/2000/svg">
<g clip-path="url(#clip0_2_3624)">
<path d="M31.4631 15.9439C31.2205 15.6485 31.0743 15.2864 31.0441 14.906C31.0138 14.5256 31.1009 14.1451 31.2937 13.8153C31.5604 13.3791 31.8398 12.9534 32.1404 12.534C32.9299 11.4128 34.3481 11.1768 35.1693 11.9186C35.9906 12.6605 36.0562 13.9291 35.4276 14.829C35.1848 15.1761 34.9527 15.5308 34.7312 15.8933C34.3269 16.5593 33.5247 16.7047 32.932 16.6794C32.7905 16.6786 32.6522 16.7207 32.5353 16.8001C32.4185 16.8796 32.3287 16.9926 32.278 17.1241C32.2166 17.2737 32.1573 17.4254 32.1002 17.5772L38.3612 17.5582C38.3612 17.476 38.3612 17.3917 38.3612 17.3074C38.2651 13.166 36.5336 9.2291 33.542 6.35012C30.5504 3.47113 26.5398 1.88201 22.3794 1.92721C18.2191 1.9724 14.2442 3.64826 11.3164 6.59155C8.38863 9.53484 6.74381 13.5084 6.73846 17.6509L18.4711 17.6172C18.5261 17.4296 18.5854 17.2484 18.6446 17.0651C19.1296 15.5919 19.7246 14.1569 20.4247 12.7721C20.6364 12.3507 20.6851 11.868 20.5284 11.5688C20.2279 10.9956 20.0585 9.95868 20.7401 8.84805C21.6203 7.40438 22.611 6.03045 23.7034 4.73849C23.7807 4.64505 23.8805 4.57255 23.9934 4.52774C24.0362 4.50757 24.084 4.50061 24.1308 4.50775C24.1776 4.51488 24.2211 4.53579 24.2559 4.56779C24.3596 4.68159 24.294 4.92816 24.1289 5.12416C23.3023 6.0995 22.5354 7.12347 21.8323 8.19052C21.7655 8.28725 21.726 8.40006 21.718 8.51718C21.7134 8.55654 21.7187 8.59644 21.7335 8.63324C21.7483 8.67004 21.7721 8.70258 21.8027 8.72792C21.9339 8.83119 22.1773 8.70263 22.3255 8.47503C23.0159 7.42809 23.7694 6.42379 24.5818 5.46767C24.6554 5.37784 24.7519 5.30941 24.8612 5.26957C24.8989 5.25305 24.9401 5.24613 24.9811 5.24944C25.0221 5.25275 25.0617 5.26619 25.0962 5.28854C25.2295 5.38548 25.1766 5.65313 25.0052 5.85545C24.2086 6.79397 23.4692 7.77922 22.7911 8.8059C22.727 8.90034 22.6897 9.0103 22.6832 9.12413C22.6805 9.16477 22.6882 9.20544 22.7056 9.2423C22.723 9.27917 22.7495 9.31102 22.7827 9.33487C22.8195 9.35555 22.8611 9.36642 22.9033 9.36642C22.9456 9.36642 22.9872 9.35555 23.024 9.33487C23.1231 9.28754 23.2079 9.21481 23.2695 9.12413C23.9342 8.11371 24.6601 7.14459 25.4433 6.22215C25.6126 6.0114 25.8666 5.93764 25.9831 6.05566C26.0077 6.08433 26.0254 6.1182 26.035 6.15471C26.0445 6.19123 26.0456 6.22942 26.0381 6.2664C26.0198 6.3757 25.9714 6.47781 25.8984 6.56145C25.1304 7.46547 24.4179 8.41486 23.7648 9.40442C23.623 9.61517 23.6166 9.88071 23.7648 9.95658C23.8002 9.97469 23.8393 9.98414 23.8791 9.98414C23.9189 9.98414 23.9581 9.97469 23.9934 9.95658C24.0911 9.91045 24.1734 9.83729 24.2305 9.74583C24.871 8.77378 25.57 7.84127 26.3238 6.95344C26.4741 6.7743 26.6985 6.69 26.8234 6.77852C26.859 6.8064 26.8861 6.84372 26.9015 6.88621C26.9168 6.92871 26.9198 6.97465 26.9102 7.01877C26.8932 7.12476 26.847 7.22398 26.7768 7.30538C25.8154 8.43775 24.9435 9.64262 24.1691 10.9091C23.9484 11.2877 23.6448 11.6118 23.2809 11.8574C22.917 12.103 22.5022 12.2636 22.0673 12.3275C21.7371 12.3675 21.3878 12.6815 21.2037 13.1136C20.62 14.4966 20.1403 15.921 19.7686 17.3749C19.7495 17.4507 19.7305 17.5224 19.7135 17.5982L25.2761 17.5814C25.3431 17.3574 25.3625 17.122 25.3332 16.8901C25.2091 16.4799 25.0934 16.0584 24.9861 15.6257C24.9489 15.0995 25.0526 14.573 25.2867 14.0999C25.7505 13.1311 26.2721 12.1909 26.8488 11.2843C27.2104 10.7064 27.6998 10.2184 28.2796 9.85752C28.8151 9.53297 29.3528 9.22528 29.8989 8.95342C29.9927 8.89398 30.1025 8.86436 30.2136 8.8685C30.3248 8.87264 30.432 8.91034 30.5212 8.9766C30.7519 9.18735 30.7328 9.58145 30.4788 9.89757C28.6619 12.1953 27.2635 14.7924 26.3471 17.5708L31.1075 17.5561C31.2387 17.2821 31.3742 17.0124 31.5139 16.7447C31.5791 16.6192 31.6088 16.4784 31.5999 16.3373C31.5909 16.1962 31.5436 16.0603 31.4631 15.9439Z" fill="url(#paint0_linear_2_3624)"/>
<path d="M4.64516 18.7366C4.64684 19.0217 4.76176 19.2945 4.96481 19.4955C5.16787 19.6965 5.44256 19.8093 5.72889 19.8093L17.8912 19.7735C18.0563 19.0471 18.2496 18.3291 18.4711 17.6196L5.72254 17.6555C5.58042 17.6557 5.43975 17.6839 5.30861 17.7385C5.17747 17.793 5.05843 17.8728 4.95834 17.9732C4.85824 18.0737 4.77904 18.1928 4.7253 18.3238C4.67156 18.4548 4.64432 18.5951 4.64516 18.7366Z" fill="url(#paint1_linear_2_3624)"/>
<path d="M19.25 19.7693L24.5543 19.7546C24.6644 19.3668 24.7808 18.9811 24.9078 18.6018C25.0073 18.2983 25.1195 17.9969 25.2274 17.6998C25.2399 17.6667 25.2505 17.6329 25.2592 17.5986L19.6966 17.6155C19.5252 18.3257 19.377 19.0465 19.25 19.7693Z" fill="url(#paint2_linear_2_3624)"/>
<path d="M25.9407 18.8987C25.8645 19.1811 25.7926 19.4656 25.7291 19.7417L30.2079 19.7291C30.4679 18.9979 30.7668 18.2811 31.1032 17.5815L26.3429 17.5963C26.1884 18.0262 26.0593 18.4625 25.9407 18.8987Z" fill="url(#paint3_linear_2_3624)"/>
<path d="M40.7658 17.8659C40.6655 17.7634 40.5452 17.6824 40.4124 17.6276C40.2796 17.5729 40.1369 17.5457 39.9932 17.5477L32.0875 17.5709C31.8155 18.2752 31.5837 18.9943 31.3932 19.7247L39.9996 19.6994C40.2136 19.6987 40.4226 19.6348 40.6002 19.5158C40.7777 19.3968 40.9158 19.2279 40.997 19.0307C41.0781 18.8335 41.0986 18.6167 41.056 18.4079C41.0133 18.1991 40.9094 18.0075 40.7573 17.8575L40.7658 17.8659Z" fill="url(#paint4_linear_2_3624)"/>
<path style="mix-blend-mode:multiply" d="M35.4233 14.8292C36.0583 13.9294 35.9885 12.6607 35.1651 11.9188C34.3417 11.177 32.9257 11.413 32.1361 12.5342C31.8398 12.9557 31.5604 13.3772 31.2895 13.8156C31.0967 14.1453 31.0095 14.5258 31.0398 14.9062C31.0701 15.2866 31.2163 15.6487 31.4588 15.9441C31.5419 16.0642 31.5895 16.205 31.5963 16.3507C31.603 16.4963 31.5686 16.641 31.4969 16.7681C31.3572 17.0358 31.2218 17.3055 31.0905 17.5795L26.3302 17.5942C27.2485 14.8153 28.6491 12.2183 30.4682 9.92096C30.718 9.60484 30.7413 9.20232 30.5106 9C30.4214 8.93374 30.3142 8.89603 30.203 8.89189C30.0919 8.88775 29.9821 8.91737 29.8883 8.97682C29.3422 9.255 28.8045 9.55637 28.269 9.88092C27.6892 10.2418 27.1998 10.7298 26.8382 11.3077C26.2615 12.2143 25.7399 13.1545 25.2761 14.1232C25.038 14.596 24.9306 15.1234 24.9649 15.6512C25.0708 16.0727 25.1865 16.4941 25.3121 16.9156C25.3413 17.1475 25.3219 17.3829 25.2549 17.6069L19.6924 17.6237C20.069 16.0936 20.5643 14.5949 21.174 13.1412C21.3582 12.7197 21.7074 12.3951 22.0376 12.3551C22.4725 12.2913 22.8874 12.1306 23.2513 11.885C23.6152 11.6394 23.9188 11.3153 24.1394 10.9368C24.9139 9.67023 25.7857 8.46536 26.7472 7.33299C26.8174 7.25159 26.8636 7.15237 26.8805 7.04638C26.8902 7.00226 26.8872 6.95632 26.8718 6.91383C26.8565 6.87133 26.8294 6.834 26.7937 6.80613C26.6688 6.71761 26.4445 6.80613 26.2942 6.98105C25.5404 7.86888 24.8413 8.80139 24.2008 9.77344C24.1438 9.8649 24.0615 9.93806 23.9638 9.98419C23.9284 10.0023 23.8892 10.0118 23.8495 10.0118C23.8097 10.0118 23.7705 10.0023 23.7352 9.98419C23.5891 9.90832 23.5955 9.64699 23.7352 9.43203C24.3944 8.44195 25.1132 7.49255 25.8878 6.58906C25.9608 6.50542 26.0092 6.40331 26.0275 6.29401C26.035 6.25703 26.0339 6.21884 26.0244 6.18232C26.0148 6.14581 25.9971 6.11194 25.9725 6.08327C25.856 5.96525 25.602 6.04955 25.4327 6.24976C24.6496 7.1722 23.9236 8.14132 23.2589 9.15174C23.1973 9.24242 23.1125 9.31515 23.0134 9.36248C22.9766 9.38317 22.935 9.39403 22.8927 9.39403C22.8505 9.39403 22.8089 9.38317 22.7721 9.36248C22.7389 9.33863 22.7124 9.30678 22.695 9.26991C22.6776 9.23305 22.6699 9.19238 22.6726 9.15174C22.6791 9.03791 22.7164 8.92795 22.7805 8.83351C23.4586 7.80684 24.198 6.82158 24.9946 5.88306C25.166 5.67231 25.2189 5.41309 25.0856 5.31615C25.0511 5.2938 25.0115 5.28036 24.9705 5.27705C24.9295 5.27374 24.8883 5.28066 24.8506 5.29718C24.7413 5.33702 24.6448 5.40545 24.5712 5.49528C23.7593 6.44596 23.0058 7.44461 22.3149 8.48578C22.1667 8.71338 21.9233 8.84194 21.7921 8.73867C21.7615 8.71333 21.7377 8.68079 21.7229 8.64399C21.7081 8.60719 21.7028 8.56729 21.7074 8.52793C21.7154 8.41081 21.7549 8.298 21.8217 8.20127C22.5245 7.13134 23.2914 6.10455 24.1183 5.12648C24.2834 4.93048 24.349 4.68391 24.2453 4.57011C24.2105 4.53811 24.167 4.5172 24.1202 4.51006C24.0734 4.50293 24.0256 4.5099 23.9828 4.53007C23.8699 4.57488 23.7701 4.64737 23.6928 4.74081C22.6004 6.03277 21.6097 7.4067 20.7295 8.85037C20.0543 9.961 20.2236 10.9979 20.5178 11.5711C20.6745 11.8704 20.63 12.3445 20.4141 12.7745C19.714 14.1592 19.119 15.5942 18.634 17.0674C18.5748 17.2507 18.5155 17.432 18.4605 17.6195C18.096 17.6229 17.7351 17.548 17.4022 17.4002C17.0693 17.2523 16.7724 17.0348 16.5314 16.7625C16.2904 16.4902 16.1112 16.1695 16.0058 15.8221C15.9003 15.4747 15.8713 15.1087 15.9205 14.7492C16.8666 7.91255 21.2121 2.68392 26.5037 2.35938C29.8482 3.22049 32.8176 5.14819 34.958 7.8479C37.0984 10.5476 38.2922 13.8708 38.357 17.3097C38.357 17.394 38.357 17.4783 38.357 17.5605L32.0959 17.5795C32.1531 17.4278 32.2123 17.276 32.2737 17.1264C32.3245 16.9949 32.4142 16.8819 32.5311 16.8025C32.6479 16.723 32.7863 16.6809 32.9278 16.6817C33.5204 16.707 34.3226 16.5616 34.7269 15.8956C34.9471 15.5317 35.1792 15.1763 35.4233 14.8292Z" fill="url(#paint5_linear_2_3624)"/>
<path d="M22.806 -0.319336C22.413 -0.319336 22.0362 -0.163911 21.7583 0.112747C21.4804 0.389406 21.3243 0.764636 21.3243 1.15589V2.63112H24.2877V1.15589C24.2877 0.764636 24.1315 0.389406 23.8537 0.112747C23.5758 -0.163911 23.199 -0.319336 22.806 -0.319336Z" fill="url(#paint6_linear_2_3624)"/>
<path d="M47.5067 5.80999H50.7605L53.5206 12.5405H53.648L56.4081 5.80999H59.6619V16.6807H57.1035V10.0033H57.0132L54.4017 16.6117H52.7669L50.1554 9.96611H50.0651V16.6807H47.5067V5.80999ZM65.1716 16.8346C64.3188 16.8346 63.5828 16.6665 62.9635 16.3303C62.3478 15.9906 61.8736 15.5076 61.541 14.8813C61.2119 14.2514 61.0473 13.503 61.0473 12.636C61.0473 11.7938 61.2136 11.0578 61.5463 10.4279C61.8789 9.79449 62.3478 9.30262 62.9529 8.9523C63.558 8.59843 64.271 8.4215 65.092 8.4215C65.6723 8.4215 66.2031 8.51174 66.6844 8.69221C67.1656 8.87268 67.5814 9.13984 67.9317 9.49371C68.2821 9.84757 68.5545 10.2846 68.7492 10.8048C68.9438 11.3214 69.0411 11.9141 69.0411 12.5829V13.2305H61.955V11.723H66.626C66.6224 11.447 66.557 11.2011 66.4296 10.9852C66.3022 10.7694 66.127 10.6013 65.9041 10.481C65.6847 10.3571 65.4317 10.2952 65.1451 10.2952C64.8549 10.2952 64.5948 10.3607 64.3648 10.4916C64.1348 10.619 63.9525 10.7942 63.8181 11.0171C63.6836 11.2365 63.6128 11.486 63.6058 11.7655V13.2995C63.6058 13.6321 63.6712 13.9241 63.8022 14.1753C63.9331 14.423 64.1189 14.6159 64.3595 14.7539C64.6001 14.8919 64.8867 14.9609 65.2194 14.9609C65.4494 14.9609 65.6582 14.929 65.8457 14.8653C66.0333 14.8017 66.1943 14.7079 66.3287 14.584C66.4632 14.4602 66.5641 14.308 66.6313 14.1275L69.0146 14.1965C68.9155 14.7309 68.6979 15.1962 68.3617 15.5925C68.0291 15.9853 67.592 16.2914 67.0506 16.5108C66.5092 16.7267 65.8829 16.8346 65.1716 16.8346ZM72.7249 16.8187C72.2047 16.8187 71.7429 16.732 71.3395 16.5586C70.9396 16.3816 70.6229 16.1163 70.3894 15.7624C70.1594 15.405 70.0444 14.9574 70.0444 14.4195C70.0444 13.9665 70.124 13.5844 70.2832 13.273C70.4425 12.9616 70.6619 12.7086 70.9414 12.5139C71.221 12.3193 71.543 12.1724 71.9075 12.0734C72.2719 11.9707 72.6612 11.9017 73.0752 11.8664C73.5388 11.8239 73.9121 11.7797 74.1952 11.7337C74.4783 11.6841 74.6835 11.6151 74.8109 11.5266C74.9418 11.4346 75.0073 11.3055 75.0073 11.1392V11.1126C75.0073 10.8402 74.9135 10.6296 74.726 10.481C74.5384 10.3324 74.2854 10.2581 73.9669 10.2581C73.6237 10.2581 73.3477 10.3324 73.1389 10.481C72.9301 10.6296 72.7974 10.8348 72.7408 11.0967L70.3469 11.0118C70.4177 10.5164 70.5999 10.074 70.8936 9.68479C71.1909 9.292 71.5978 8.98414 72.1145 8.76121C72.6347 8.53474 73.2592 8.4215 73.9882 8.4215C74.5084 8.4215 74.9878 8.48343 75.4266 8.60728C75.8654 8.72759 76.2476 8.90452 76.5731 9.13807C76.8987 9.36809 77.1499 9.65118 77.3269 9.98735C77.5073 10.3235 77.5976 10.7075 77.5976 11.1392V16.6807H75.1559V15.5448H75.0922C74.9471 15.8208 74.7614 16.0543 74.5349 16.2454C74.312 16.4365 74.0483 16.5798 73.744 16.6754C73.4432 16.7709 73.1035 16.8187 72.7249 16.8187ZM73.5264 15.1201C73.8059 15.1201 74.0572 15.0635 74.2801 14.9503C74.5066 14.837 74.6871 14.6813 74.8215 14.4832C74.956 14.2815 75.0232 14.0479 75.0232 13.7825V13.0076C74.9489 13.0465 74.8587 13.0819 74.7525 13.1137C74.6499 13.1456 74.5367 13.1757 74.4128 13.204C74.289 13.2323 74.1616 13.257 74.0306 13.2783C73.8997 13.2995 73.7741 13.319 73.6538 13.3367C73.4096 13.3756 73.2008 13.4357 73.0274 13.5171C72.8576 13.5985 72.7267 13.7047 72.6347 13.8356C72.5462 13.963 72.502 14.1152 72.502 14.2921C72.502 14.561 72.5975 14.7663 72.7886 14.9078C72.9832 15.0494 73.2291 15.1201 73.5264 15.1201ZM81.84 5.80999V16.6807H79.2444V5.80999H81.84ZM90.6699 11.0171L88.2866 11.0808C88.2618 10.9109 88.1946 10.7605 88.0849 10.6296C87.9752 10.4951 87.8319 10.3907 87.655 10.3164C87.4816 10.2386 87.2799 10.1997 87.0499 10.1997C86.7491 10.1997 86.4925 10.2598 86.2802 10.3801C86.0714 10.5004 85.9688 10.6632 85.9723 10.8685C85.9688 11.0277 86.0325 11.1657 86.1634 11.2825C86.2979 11.3993 86.5367 11.493 86.88 11.5638L88.4511 11.861C89.265 12.0167 89.8701 12.2751 90.2665 12.636C90.6663 12.997 90.868 13.4747 90.8716 14.0692C90.868 14.6283 90.7017 15.1148 90.3726 15.5288C90.0471 15.9429 89.6012 16.2649 89.035 16.4949C88.4688 16.7214 87.8213 16.8346 87.0923 16.8346C85.9281 16.8346 85.0098 16.5957 84.3375 16.118C83.6687 15.6368 83.2865 14.9927 83.191 14.1859L85.7547 14.1222C85.8113 14.4195 85.9582 14.646 86.1953 14.8017C86.4324 14.9574 86.7349 15.0352 87.1029 15.0352C87.4356 15.0352 87.7063 14.9733 87.915 14.8494C88.1238 14.7256 88.23 14.561 88.2335 14.3558C88.23 14.1718 88.1486 14.0249 87.9894 13.9152C87.8301 13.802 87.5806 13.7135 87.2409 13.6498L85.8184 13.3791C85.001 13.2305 84.3923 12.9563 83.9925 12.5564C83.5926 12.153 83.3944 11.6399 83.398 11.0171C83.3944 10.4721 83.5395 10.0068 83.8332 9.6211C84.1269 9.23185 84.5445 8.9346 85.0859 8.72936C85.6273 8.52412 86.266 8.4215 87.0021 8.4215C88.1061 8.4215 88.9766 8.65328 89.6136 9.11684C90.2505 9.57686 90.6026 10.2103 90.6699 11.0171Z" fill="#1A1A1A"/>
</g>
<defs>
<linearGradient id="paint0_linear_2_3624" x1="32.6314" y1="24.3367" x2="9.93186" y2="1.67311" gradientUnits="userSpaceOnUse">
<stop stop-color="#FFAB17"/>
<stop offset="0.28" stop-color="#FF8121"/>
<stop offset="0.6" stop-color="#FF572B"/>
<stop offset="0.85" stop-color="#FF3D31"/>
<stop offset="1" stop-color="#FF3333"/>
</linearGradient>
<linearGradient id="paint1_linear_2_3624" x1="25.1375" y1="31.8448" x2="2.43592" y2="9.1813" gradientUnits="userSpaceOnUse">
<stop stop-color="#FFAB17"/>
<stop offset="0.28" stop-color="#FF8121"/>
<stop offset="0.6" stop-color="#FF572B"/>
<stop offset="0.85" stop-color="#FF3D31"/>
<stop offset="1" stop-color="#FF3333"/>
</linearGradient>
<linearGradient id="paint2_linear_2_3624" x1="30.3163" y1="26.6579" x2="7.61685" y2="3.99222" gradientUnits="userSpaceOnUse">
<stop stop-color="#FFAB17"/>
<stop offset="0.28" stop-color="#FF8121"/>
<stop offset="0.6" stop-color="#FF572B"/>
<stop offset="0.85" stop-color="#FF3D31"/>
<stop offset="1" stop-color="#FF3333"/>
</linearGradient>
<linearGradient id="paint3_linear_2_3624" x1="33.3848" y1="23.5843" x2="10.6832" y2="0.920771" gradientUnits="userSpaceOnUse">
<stop stop-color="#FFAB17"/>
<stop offset="0.28" stop-color="#FF8121"/>
<stop offset="0.6" stop-color="#FF572B"/>
<stop offset="0.85" stop-color="#FF3D31"/>
<stop offset="1" stop-color="#FF3333"/>
</linearGradient>
<linearGradient id="paint4_linear_2_3624" x1="37.1307" y1="19.8324" x2="14.4312" y2="-2.83328" gradientUnits="userSpaceOnUse">
<stop stop-color="#FFAB17"/>
<stop offset="0.28" stop-color="#FF8121"/>
<stop offset="0.6" stop-color="#FF572B"/>
<stop offset="0.85" stop-color="#FF3D31"/>
<stop offset="1" stop-color="#FF3333"/>
</linearGradient>
<linearGradient id="paint5_linear_2_3624" x1="27.1217" y1="12.9686" x2="11.0086" y2="1.2068" gradientUnits="userSpaceOnUse">
<stop stop-color="white"/>
<stop offset="0.13" stop-color="#F3BCBC"/>
<stop offset="0.27" stop-color="#E98181"/>
<stop offset="0.38" stop-color="#E15757"/>
<stop offset="0.47" stop-color="#DD3D3D"/>
<stop offset="0.52" stop-color="#DB3333"/>
</linearGradient>
<linearGradient id="paint6_linear_2_3624" x1="39.1777" y1="17.7821" x2="16.4761" y2="-4.88353" gradientUnits="userSpaceOnUse">
<stop stop-color="#FFAB17"/>
<stop offset="0.28" stop-color="#FF8121"/>
<stop offset="0.6" stop-color="#FF572B"/>
<stop offset="0.85" stop-color="#FF3D31"/>
<stop offset="1" stop-color="#FF3333"/>
</linearGradient>
<clipPath id="clip0_2_3624">
<rect width="112" height="24.9639" fill="white" transform="translate(0 0.0180664)"/>
</clipPath>
</defs>
</svg>
