<svg width="28" height="27" viewBox="0 0 28 27" fill="none" xmlns="http://www.w3.org/2000/svg">
<path fill-rule="evenodd" clip-rule="evenodd" d="M27.234 3.40426C27.234 1.52414 25.7099 0 23.8298 0H3.40426C1.52414 0 0 1.52414 0 3.40426V17.0213C0 18.9014 1.52414 20.4255 3.40426 20.4255H19.7205C20.1719 20.4255 20.6049 20.6049 20.9241 20.9241L25.7812 25.7812C26.3173 26.3173 27.234 25.9376 27.234 25.1794V3.40426ZM8.51064 10.2128C8.51064 11.1528 7.74857 11.9149 6.80851 11.9149C5.86845 11.9149 5.10638 11.1528 5.10638 10.2128C5.10638 9.27271 5.86845 8.51064 6.80851 8.51064C7.74857 8.51064 8.51064 9.27271 8.51064 10.2128ZM15.3191 10.2128C15.3191 11.1528 14.5571 11.9149 13.617 11.9149C12.677 11.9149 11.9149 11.1528 11.9149 10.2128C11.9149 9.27271 12.677 8.51064 13.617 8.51064C14.5571 8.51064 15.3191 9.27271 15.3191 10.2128ZM20.4255 11.9149C21.3656 11.9149 22.1277 11.1528 22.1277 10.2128C22.1277 9.27271 21.3656 8.51064 20.4255 8.51064C19.4855 8.51064 18.7234 9.27271 18.7234 10.2128C18.7234 11.1528 19.4855 11.9149 20.4255 11.9149Z" fill="white"/>
</svg>
